<svg xmlns="http://www.w3.org/2000/svg" height="512pt" version="1.1" viewBox="0 -61 512 512" width="512pt">
<g id="surface1">
<path d="M 467 153.679688 C 458.710938 153.679688 452 146.972656 452 138.679688 L 452 135.019531 C 452 110.203125 431.8125 90.019531 407 90.019531 L 377 90.019531 C 352.1875 90.019531 332 69.832031 332 45.019531 C 332 36.726562 338.710938 30.019531 347 30.019531 C 355.289062 30.019531 362 36.726562 362 45.019531 C 362 53.292969 368.722656 60.019531 377 60.019531 L 407 60.019531 C 448.351562 60.019531 482 93.664062 482 135.019531 L 482 138.679688 C 482 146.972656 475.289062 153.679688 467 153.679688 Z M 467 153.679688 " style=" stroke:none;fill-rule:nonzero;fill:rgb(50.588235%,65.490196%,7.45098%);fill-opacity:1;" />
<path d="M 437 390.015625 L 407 390.015625 C 400.863281 390.015625 395.355469 386.28125 393.070312 380.582031 L 369.074219 320.582031 C 366 312.894531 369.75 304.164062 377.4375 301.085938 C 385.070312 298.011719 393.859375 301.746094 396.9375 309.449219 L 417.152344 360.015625 L 437 360.015625 C 445.289062 360.015625 452 366.726562 452 375.015625 C 452 383.308594 445.289062 390.015625 437 390.015625 Z M 437 390.015625 " style=" stroke:none;fill-rule:nonzero;fill:rgb(40.784314%,30.196078%,20.392157%);fill-opacity:1;" />
<path d="M 255 390.015625 L 225 390.015625 C 216.710938 390.015625 210 383.308594 210 375.015625 C 210 366.726562 216.710938 360.015625 225 360.015625 L 244.847656 360.015625 L 265.0625 309.453125 C 268.125 301.746094 276.945312 297.996094 284.5625 301.085938 C 292.25 304.164062 296 312.894531 292.925781 320.585938 L 268.929688 380.585938 C 266.644531 386.28125 261.136719 390.015625 255 390.015625 Z M 255 390.015625 " style=" stroke:none;fill-rule:nonzero;fill:rgb(49.411765%,36.470588%,25.098039%);fill-opacity:1;" />
<path d="M 497 180.015625 L 459.199219 293.714844 C 455 315.015625 436.699219 330.015625 415.101562 330.015625 L 195 330.015625 C 137.101562 330.015625 90 282.917969 90 225.015625 L 90 180.015625 Z M 497 180.015625 " style=" stroke:none;fill-rule:nonzero;fill:rgb(57.647059%,74.901961%,0%);fill-opacity:1;" />
<path d="M 497 180.015625 L 459.199219 293.714844 C 455 315.015625 436.699219 330.015625 415.101562 330.015625 L 332 330.015625 L 332 180.015625 Z M 497 180.015625 " style=" stroke:none;fill-rule:nonzero;fill:rgb(50.588235%,65.490196%,7.45098%);fill-opacity:1;" />
<path d="M 512 180.015625 C 512 196.515625 505.402344 211.515625 494.300781 222.316406 C 483.5 233.417969 468.5 240.015625 452 240.015625 L 105 240.015625 C 47.101562 240.015625 0 192.917969 0 135.015625 C 0 126.617188 6.597656 120.015625 15 120.015625 L 452 120.015625 C 485 120.015625 512 147.015625 512 180.015625 Z M 512 180.015625 " style=" stroke:none;fill-rule:nonzero;fill:rgb(65.882353%,82.745098%,16.470588%);fill-opacity:1;" />
<path d="M 512 180.015625 C 512 196.515625 505.402344 211.515625 494.300781 222.316406 C 483.5 233.417969 468.5 240.015625 452 240.015625 L 332 240.015625 L 332 120.015625 L 452 120.015625 C 485 120.015625 512 147.015625 512 180.015625 Z M 512 180.015625 " style=" stroke:none;fill-rule:nonzero;fill:rgb(57.647059%,74.901961%,0%);fill-opacity:1;" />
<path d="M 467 270.015625 C 442.1875 270.015625 422 249.832031 422 225.015625 C 422 200.203125 442.1875 180.015625 467 180.015625 C 491.8125 180.015625 512 200.203125 512 225.015625 C 512 249.832031 491.8125 270.015625 467 270.015625 Z M 467 270.015625 " style=" stroke:none;fill-rule:nonzero;fill:rgb(40.784314%,30.196078%,20.392157%);fill-opacity:1;" />
<path d="M 278.6875 187.003906 L 178.019531 7.546875 L 150.4375 18.59375 L 195.441406 216.347656 C 198.546875 238.390625 217.691406 255.019531 240 255.019531 C 264.816406 255.019531 332 264.832031 332 240.019531 C 332 231.785156 282.757812 193.726562 278.6875 187.003906 Z M 278.6875 187.003906 " style=" stroke:none;fill-rule:nonzero;fill:rgb(72.54902%,86.666667%,22.352941%);fill-opacity:1;" />
<path d="M 45 390.015625 L 15 390.015625 C 6.710938 390.015625 0 383.308594 0 375.015625 C 0 366.726562 6.710938 360.015625 15 360.015625 L 34.1875 360.015625 L 150.777344 10.269531 C 153.382812 2.40625 161.804688 -1.871094 169.746094 0.792969 C 177.597656 3.398438 181.847656 11.898438 179.222656 19.761719 L 59.222656 379.761719 C 57.1875 385.886719 51.460938 390.015625 45 390.015625 Z M 45 390.015625 " style=" stroke:none;fill-rule:nonzero;fill:rgb(72.54902%,86.666667%,22.352941%);fill-opacity:1;" />
</g>
</svg>